<?xml version="1.0" encoding="utf-8"?>
<!-- Generator: Adobe Illustrator 17.0.0, SVG Export Plug-In . SVG Version: 6.00 Build 0)  -->
<!DOCTYPE svg PUBLIC "-//W3C//DTD SVG 1.1//EN" "http://www.w3.org/Graphics/SVG/1.1/DTD/svg11.dtd">
<svg version="1.1" xmlns="http://www.w3.org/2000/svg" xmlns:xlink="http://www.w3.org/1999/xlink" x="0px" y="0px" width="289px"
	 height="63.5px" viewBox="0 0 289 63.5" enable-background="new 0 0 289 63.5" xml:space="preserve">
<g id="Layer_1" display="none">
	<g display="inline">
		<g>
			<path fill="#5B5B5B" d="M12.694,22.231c1.231-0.218,2.461-0.472,3.62-0.472c0.253,0,0.543,0,0.796,0.037l2.244-10.591h5.212
				l-5.755,27.13h-5.212l2.859-13.456c-0.796-0.291-1.557-0.363-2.316-0.363c-0.688,0-1.375,0.072-1.955,0.145L9.292,38.335H4.08
				l5.248-24.664c-3.185,1.342-5.067,4.099-5.067,7.943c0,1.85,0.471,2.14,0.507,2.466c-2.498,0-3.873-0.907-3.873-3.518
				c0-4.824,6.66-9.43,12.704-9.43c0.506,0,0.977,0.036,1.448,0.073L12.694,22.231z"/>
			<path fill="#5B5B5B" d="M37.159,25.169c0.217,0.218,0.543,0.326,1.05,0.326c1.701,0,2.461-1.233,3.8-1.777l0.145,0.762
				c-1.122,1.415-3.004,2.611-5.103,3.192c-0.688,7.29-4.633,10.881-8.252,10.881c-3.873,0-5.538-1.632-5.538-5.948
				c0-8.923,4.524-12.767,9.519-12.767C36.218,19.837,37.086,22.521,37.159,25.169z M34.372,28.034c-1.049,0-1.52-0.762-1.52-1.632
				c0-1.052,0.615-2.176,1.593-2.539c-0.109-1.197-0.507-1.886-1.52-1.886c-3.402,0-4.85,7.399-4.85,10.301
				c0,2.176,1.013,2.756,2.425,2.756C32.707,35.034,33.938,31.553,34.372,28.034z"/>
			<path fill="#5B5B5B" d="M63,22.739c0,5.658-2.859,15.596-10.17,15.596c-2.461,0-4.054-0.943-4.416-3.011
				c-1.701,1.56-3.656,3.011-5.176,3.011c-2.787,0-4.524-1.233-4.524-3.953c0-0.544,0.072-1.161,0.217-1.851L41.537,20.2h5.212
				l-2.606,12.332c-0.072,0.399-0.145,0.799-0.145,1.125c0,0.798,0.362,1.378,1.81,1.378c0.76,0,1.665-0.544,2.533-1.27
				c0-0.362,0.073-0.798,0.181-1.233L51.128,20.2h5.212l-2.606,12.332c-0.108,0.508-0.181,0.943-0.181,1.343
				c0,0.688,0.326,1.16,1.375,1.16c3.547,0,5.972-7.943,5.972-11.896c-0.217,0.073-0.543,0.145-0.76,0.145
				c-1.05,0-1.52-1.016-1.52-2.031c0-0.762,0.869-1.777,2.063-1.777C62.239,19.475,63,20.853,63,22.739z"/>
			<path fill="#5B5B5B" d="M89.599,12.946l-4.126,19.585c-0.073,0.399-0.181,0.799-0.181,1.161c0,0.798,0.398,1.342,1.81,1.342
				c1.448,0,3.33-2.031,4.778-3.191h1.23c-1.665,1.668-5.755,6.492-8.578,6.492c-2.353,0-3.909-0.87-4.379-2.757
				c-1.086,1.487-2.714,2.975-4.922,2.975c-3.475,0-4.488-2.467-4.488-4.606c0-6.238,2.244-13.71,9.482-13.71
				c0.869,0,1.774,0.362,2.425,0.907l1.592-7.472L89.599,12.946z M75.628,32.967c0,2.177,1.194,2.575,2.099,2.575
				c0.833,0,1.629-0.798,2.316-1.813c0.036-0.362,0.108-0.762,0.217-1.197l2.027-9.611c-0.579-0.507-1.267-0.653-1.773-0.653
				C77.799,22.267,75.628,28.034,75.628,32.967z"/>
			<path fill="#5B5B5B" d="M104.943,22.703l0.362,0.725c-0.362,1.27-0.977,2.975-2.425,3.845
				c-0.398,7.508-4.669,11.316-8.071,11.316c-3.873,0-5.683-1.668-5.683-5.984c0-8.85,4.561-12.767,9.519-12.767
				c1.737,0,3.402,0.689,3.402,1.632c0,1.052-0.869,1.487-1.629,1.741c-0.29-0.762-0.796-1.233-1.628-1.233
				c-3.547,0-4.85,7.399-4.85,10.301c0,2.176,1.085,2.756,2.534,2.756c2.135,0,3.402-3.917,3.764-7.254
				c-0.724-0.145-1.013-0.726-1.013-1.487c0-1.269,1.267-2.756,2.425-2.756c0.688,0,1.231,0.218,1.231,0.979
				c0,0.109,0,0.218-0.036,0.326C103.785,24.262,104.111,23.609,104.943,22.703z"/>
			<path fill="#5B5B5B" d="M121.408,38.335h-5.211l5.249-24.627c-3.15,1.306-5.068,4.026-5.068,7.907c0,1.85,0.47,2.14,0.507,2.466
				c-2.498,0-3.873-0.907-3.873-3.518c0-4.824,6.66-9.43,12.703-9.43c0.508,0,0.979,0.036,1.449,0.073L121.408,38.335z"/>
			<path fill="#5B5B5B" d="M143.594,12.946l-4.162,19.585c-0.109,0.545-0.182,0.871-0.182,1.161c0,0.798,0.398,1.342,1.811,1.342
				c1.447,0,3.33-2.031,4.777-3.191h1.23c-1.666,1.668-5.756,6.492-8.578,6.492c-2.787,0-4.488-1.233-4.488-3.953
				c0-0.544,0.072-1.161,0.217-1.851l4.018-18.86L143.594,12.946z"/>
			<path fill="#5B5B5B" d="M157.201,25.169c0.217,0.218,0.543,0.326,1.049,0.326c1.701,0,2.463-1.233,3.801-1.777l0.145,0.762
				c-1.121,1.415-3.004,2.611-5.104,3.192c-0.688,7.29-4.633,10.881-8.252,10.881c-3.873,0-5.537-1.632-5.537-5.948
				c0-8.923,4.523-12.767,9.52-12.767C156.26,19.837,157.129,22.521,157.201,25.169z M154.414,28.034
				c-1.049,0-1.52-0.762-1.52-1.632c0-1.052,0.615-2.176,1.592-2.539c-0.107-1.197-0.506-1.886-1.52-1.886
				c-3.402,0-4.85,7.399-4.85,10.301c0,2.176,1.014,2.756,2.424,2.756C152.75,35.034,153.98,31.553,154.414,28.034z"/>
			<path fill="#5B5B5B" d="M172.328,25.169c0.217,0.218,0.543,0.326,1.049,0.326c1.701,0,2.463-1.233,3.801-1.777l0.145,0.762
				c-1.121,1.415-3.004,2.611-5.104,3.192c-0.688,7.29-4.633,10.881-8.252,10.881c-3.873,0-5.537-1.632-5.537-5.948
				c0-8.923,4.523-12.767,9.52-12.767C171.387,19.837,172.256,22.521,172.328,25.169z M169.541,28.034
				c-1.049,0-1.52-0.762-1.52-1.632c0-1.052,0.615-2.176,1.592-2.539c-0.107-1.197-0.506-1.886-1.52-1.886
				c-3.402,0-4.85,7.399-4.85,10.301c0,2.176,1.014,2.756,2.424,2.756C167.877,35.034,169.107,31.553,169.541,28.034z"/>
			<path fill="#5B5B5B" d="M191.039,20.2l-7.203,4.896c0.291-0.036,0.543-0.072,0.834-0.072c1.99,0,4.197,2.176,4.197,4.57
				c0,0.254-0.035,0.544-0.107,0.834l-0.471,2.104c-0.109,0.508-0.291,1.053-0.291,1.523c0,0.617,0.291,1.052,1.377,1.052
				c0.252,0,0.65,0,0.939-0.108c-1.012,3.119-2.533,3.337-3.764,3.337c-2.568,0-3.691-1.705-3.691-3.989
				c0-0.581,0.072-1.197,0.217-1.814l0.363-1.704c0.035-0.254,0.072-0.544,0.072-0.834c0-1.161-0.508-2.249-1.629-2.249
				c-0.869,0-1.521,0.254-2.244,0.762l-2.1,9.829h-5.213l5.248-24.664l5.357-0.726l-2.678,12.658c2.678-2.14,6.877-5.44,6.877-5.404
				H191.039z"/>
			<path fill="#5B5B5B" d="M195.996,38.335c-1.594,0-2.896-1.306-2.896-2.901s1.303-2.865,2.896-2.865
				c1.592,0,2.859,1.27,2.859,2.865S197.588,38.335,195.996,38.335z M198.059,29.92h-2.389c0-5.114,6.588-7,6.588-12.513
				c0-1.777-0.941-2.503-1.992-2.503c-1.375,0-2.895,1.197-2.895,3.011c0,0.834,0.361,2.104,1.375,2.394
				c-0.615,1.016-1.629,1.523-2.643,1.523c-1.41,0-2.75-1.016-2.75-3.047c0-2.466,2.135-5.839,7.602-5.839
				c4.957,0,5.791,1.958,5.791,4.389C206.746,24.334,199.832,24.516,198.059,29.92z"/>
		</g>
	</g>
	<g display="inline">
		<g>
			<linearGradient id="SVGID_1_" gradientUnits="userSpaceOnUse" x1="103.1421" y1="10.5054" x2="103.1421" y2="37.9619">
				<stop  offset="0" style="stop-color:#FFFFFF"/>
				<stop  offset="0.3234" style="stop-color:#F8F8F8"/>
				<stop  offset="0.8083" style="stop-color:#E3E5E6"/>
				<stop  offset="1" style="stop-color:#D9DCDD"/>
			</linearGradient>
			<path fill="url(#SVGID_1_)" d="M12.016,21.604c1.231-0.218,2.461-0.472,3.62-0.472c0.253,0,0.543,0,0.796,0.037l2.244-10.591
				h5.212l-5.755,27.13h-5.212l2.859-13.456c-0.796-0.291-1.557-0.363-2.316-0.363c-0.688,0-1.375,0.072-1.955,0.145L8.614,37.708
				H3.402L8.65,13.044c-3.185,1.342-5.067,4.099-5.067,7.943c0,1.85,0.471,2.14,0.507,2.466c-2.498,0-3.873-0.907-3.873-3.518
				c0-4.824,6.66-9.43,12.704-9.43c0.506,0,0.977,0.036,1.448,0.073L12.016,21.604z"/>
			<linearGradient id="SVGID_2_" gradientUnits="userSpaceOnUse" x1="103.1421" y1="10.5054" x2="103.1421" y2="37.9619">
				<stop  offset="0" style="stop-color:#FFFFFF"/>
				<stop  offset="0.3234" style="stop-color:#F8F8F8"/>
				<stop  offset="0.8083" style="stop-color:#E3E5E6"/>
				<stop  offset="1" style="stop-color:#D9DCDD"/>
			</linearGradient>
			<path fill="url(#SVGID_2_)" d="M36.48,24.542c0.217,0.218,0.543,0.326,1.05,0.326c1.701,0,2.461-1.233,3.8-1.777l0.145,0.762
				c-1.122,1.415-3.004,2.611-5.103,3.192c-0.688,7.29-4.633,10.881-8.252,10.881c-3.873,0-5.538-1.632-5.538-5.948
				c0-8.923,4.524-12.767,9.519-12.767C35.54,19.21,36.408,21.894,36.48,24.542z M33.693,27.407c-1.049,0-1.52-0.762-1.52-1.632
				c0-1.052,0.615-2.176,1.593-2.539c-0.109-1.197-0.507-1.886-1.52-1.886c-3.402,0-4.85,7.399-4.85,10.301
				c0,2.176,1.013,2.756,2.425,2.756C32.029,34.407,33.259,30.926,33.693,27.407z"/>
			<linearGradient id="SVGID_3_" gradientUnits="userSpaceOnUse" x1="103.1421" y1="10.5054" x2="103.1421" y2="37.9619">
				<stop  offset="0" style="stop-color:#FFFFFF"/>
				<stop  offset="0.3234" style="stop-color:#F8F8F8"/>
				<stop  offset="0.8083" style="stop-color:#E3E5E6"/>
				<stop  offset="1" style="stop-color:#D9DCDD"/>
			</linearGradient>
			<path fill="url(#SVGID_3_)" d="M62.321,22.112c0,5.658-2.859,15.596-10.17,15.596c-2.461,0-4.054-0.943-4.416-3.011
				c-1.701,1.56-3.656,3.011-5.176,3.011c-2.787,0-4.524-1.233-4.524-3.953c0-0.544,0.072-1.161,0.217-1.851l2.606-12.332h5.212
				l-2.606,12.332c-0.072,0.399-0.145,0.799-0.145,1.125c0,0.798,0.362,1.378,1.81,1.378c0.76,0,1.665-0.544,2.533-1.27
				c0-0.362,0.073-0.798,0.181-1.233l2.606-12.332h5.212l-2.606,12.332c-0.108,0.508-0.181,0.943-0.181,1.343
				c0,0.688,0.326,1.16,1.375,1.16c3.547,0,5.972-7.943,5.972-11.896c-0.217,0.073-0.543,0.145-0.76,0.145
				c-1.05,0-1.52-1.016-1.52-2.031c0-0.762,0.869-1.777,2.063-1.777C61.561,18.848,62.321,20.226,62.321,22.112z"/>
			<linearGradient id="SVGID_4_" gradientUnits="userSpaceOnUse" x1="103.1421" y1="10.5054" x2="103.1421" y2="37.9619">
				<stop  offset="0" style="stop-color:#FFFFFF"/>
				<stop  offset="0.3234" style="stop-color:#F8F8F8"/>
				<stop  offset="0.8083" style="stop-color:#E3E5E6"/>
				<stop  offset="1" style="stop-color:#D9DCDD"/>
			</linearGradient>
			<path fill="url(#SVGID_4_)" d="M88.92,12.319l-4.126,19.585c-0.073,0.399-0.181,0.799-0.181,1.161
				c0,0.798,0.398,1.342,1.81,1.342c1.448,0,3.33-2.031,4.778-3.191h1.23c-1.665,1.668-5.755,6.492-8.578,6.492
				c-2.353,0-3.909-0.87-4.379-2.757c-1.086,1.487-2.714,2.975-4.922,2.975c-3.475,0-4.488-2.467-4.488-4.606
				c0-6.238,2.244-13.71,9.482-13.71c0.869,0,1.774,0.362,2.425,0.907l1.592-7.472L88.92,12.319z M74.95,32.34
				c0,2.177,1.194,2.575,2.099,2.575c0.833,0,1.629-0.798,2.316-1.813c0.036-0.362,0.108-0.762,0.217-1.197l2.027-9.611
				c-0.579-0.507-1.267-0.653-1.773-0.653C77.121,21.64,74.95,27.407,74.95,32.34z"/>
			<linearGradient id="SVGID_5_" gradientUnits="userSpaceOnUse" x1="103.1421" y1="10.5054" x2="103.1421" y2="37.9619">
				<stop  offset="0" style="stop-color:#FFFFFF"/>
				<stop  offset="0.3234" style="stop-color:#F8F8F8"/>
				<stop  offset="0.8083" style="stop-color:#E3E5E6"/>
				<stop  offset="1" style="stop-color:#D9DCDD"/>
			</linearGradient>
			<path fill="url(#SVGID_5_)" d="M104.265,22.076l0.362,0.725c-0.362,1.27-0.977,2.974-2.425,3.845
				c-0.398,7.508-4.669,11.316-8.071,11.316c-3.873,0-5.683-1.668-5.683-5.984c0-8.85,4.561-12.767,9.519-12.767
				c1.737,0,3.402,0.689,3.402,1.632c0,1.052-0.869,1.487-1.629,1.741c-0.29-0.762-0.796-1.233-1.628-1.233
				c-3.547,0-4.85,7.399-4.85,10.301c0,2.176,1.085,2.756,2.534,2.756c2.135,0,3.402-3.917,3.764-7.254
				c-0.724-0.145-1.013-0.726-1.013-1.487c0-1.27,1.267-2.757,2.425-2.757c0.688,0,1.231,0.218,1.231,0.979
				c0,0.109,0,0.218-0.036,0.326C103.107,23.635,103.433,22.982,104.265,22.076z"/>
			<linearGradient id="SVGID_6_" gradientUnits="userSpaceOnUse" x1="103.1421" y1="10.5054" x2="103.1421" y2="37.9619">
				<stop  offset="0" style="stop-color:#FFFFFF"/>
				<stop  offset="0.3234" style="stop-color:#F8F8F8"/>
				<stop  offset="0.8083" style="stop-color:#E3E5E6"/>
				<stop  offset="1" style="stop-color:#D9DCDD"/>
			</linearGradient>
			<path fill="url(#SVGID_6_)" d="M120.73,37.708h-5.212l5.248-24.627c-3.149,1.306-5.067,4.026-5.067,7.907
				c0,1.85,0.471,2.14,0.507,2.466c-2.497,0-3.873-0.907-3.873-3.518c0-4.824,6.66-9.43,12.704-9.43
				c0.507,0,0.978,0.036,1.448,0.073L120.73,37.708z"/>
			<linearGradient id="SVGID_7_" gradientUnits="userSpaceOnUse" x1="103.1421" y1="10.5054" x2="103.1421" y2="37.9619">
				<stop  offset="0" style="stop-color:#FFFFFF"/>
				<stop  offset="0.3234" style="stop-color:#F8F8F8"/>
				<stop  offset="0.8083" style="stop-color:#E3E5E6"/>
				<stop  offset="1" style="stop-color:#D9DCDD"/>
			</linearGradient>
			<path fill="url(#SVGID_7_)" d="M142.915,12.319l-4.162,19.585c-0.108,0.545-0.181,0.871-0.181,1.161
				c0,0.798,0.397,1.342,1.81,1.342c1.447,0,3.33-2.031,4.777-3.191h1.23c-1.665,1.668-5.755,6.492-8.578,6.492
				c-2.786,0-4.487-1.233-4.487-3.953c0-0.544,0.072-1.161,0.217-1.851l4.018-18.86L142.915,12.319z"/>
			<linearGradient id="SVGID_8_" gradientUnits="userSpaceOnUse" x1="103.1421" y1="10.5054" x2="103.1421" y2="37.9619">
				<stop  offset="0" style="stop-color:#FFFFFF"/>
				<stop  offset="0.3234" style="stop-color:#F8F8F8"/>
				<stop  offset="0.8083" style="stop-color:#E3E5E6"/>
				<stop  offset="1" style="stop-color:#D9DCDD"/>
			</linearGradient>
			<path fill="url(#SVGID_8_)" d="M156.523,24.542c0.217,0.218,0.543,0.326,1.049,0.326c1.701,0,2.462-1.233,3.801-1.777
				l0.145,0.762c-1.122,1.415-3.004,2.611-5.104,3.192c-0.688,7.29-4.633,10.881-8.252,10.881c-3.873,0-5.537-1.632-5.537-5.948
				c0-8.923,4.523-12.767,9.519-12.767C155.582,19.21,156.45,21.894,156.523,24.542z M153.736,27.407
				c-1.05,0-1.521-0.762-1.521-1.632c0-1.052,0.615-2.176,1.593-2.539c-0.108-1.197-0.507-1.886-1.521-1.886
				c-3.402,0-4.85,7.399-4.85,10.301c0,2.176,1.014,2.756,2.425,2.756C152.071,34.407,153.302,30.926,153.736,27.407z"/>
			<linearGradient id="SVGID_9_" gradientUnits="userSpaceOnUse" x1="103.1421" y1="10.5054" x2="103.1421" y2="37.9619">
				<stop  offset="0" style="stop-color:#FFFFFF"/>
				<stop  offset="0.3234" style="stop-color:#F8F8F8"/>
				<stop  offset="0.8083" style="stop-color:#E3E5E6"/>
				<stop  offset="1" style="stop-color:#D9DCDD"/>
			</linearGradient>
			<path fill="url(#SVGID_9_)" d="M171.65,24.542c0.217,0.218,0.543,0.326,1.049,0.326c1.701,0,2.462-1.233,3.801-1.777l0.145,0.762
				c-1.122,1.415-3.004,2.611-5.104,3.192c-0.688,7.29-4.633,10.881-8.252,10.881c-3.873,0-5.537-1.632-5.537-5.948
				c0-8.923,4.523-12.767,9.519-12.767C170.709,19.21,171.577,21.894,171.65,24.542z M168.863,27.407
				c-1.05,0-1.521-0.762-1.521-1.632c0-1.052,0.615-2.176,1.593-2.539c-0.108-1.197-0.507-1.886-1.521-1.886
				c-3.402,0-4.85,7.399-4.85,10.301c0,2.176,1.014,2.756,2.425,2.756C167.198,34.407,168.429,30.926,168.863,27.407z"/>
			<linearGradient id="SVGID_10_" gradientUnits="userSpaceOnUse" x1="103.1421" y1="10.5054" x2="103.1421" y2="37.9619">
				<stop  offset="0" style="stop-color:#FFFFFF"/>
				<stop  offset="0.3234" style="stop-color:#F8F8F8"/>
				<stop  offset="0.8083" style="stop-color:#E3E5E6"/>
				<stop  offset="1" style="stop-color:#D9DCDD"/>
			</linearGradient>
			<path fill="url(#SVGID_10_)" d="M190.361,19.573l-7.203,4.896c0.29-0.036,0.543-0.072,0.833-0.072c1.99,0,4.198,2.176,4.198,4.57
				c0,0.254-0.036,0.544-0.108,0.834l-0.471,2.104c-0.108,0.508-0.29,1.053-0.29,1.523c0,0.617,0.29,1.052,1.376,1.052
				c0.253,0,0.651,0,0.94-0.108c-1.013,3.119-2.533,3.337-3.764,3.337c-2.569,0-3.691-1.705-3.691-3.989
				c0-0.581,0.072-1.197,0.217-1.814l0.362-1.704c0.036-0.254,0.072-0.544,0.072-0.834c0-1.161-0.507-2.249-1.629-2.249
				c-0.869,0-1.521,0.254-2.244,0.762l-2.1,9.829h-5.212l5.248-24.664l5.357-0.726l-2.679,12.658c2.679-2.14,6.877-5.44,6.877-5.404
				H190.361z"/>
			<linearGradient id="SVGID_11_" gradientUnits="userSpaceOnUse" x1="103.1421" y1="10.5054" x2="103.1421" y2="37.9619">
				<stop  offset="0" style="stop-color:#FFFFFF"/>
				<stop  offset="0.3234" style="stop-color:#F8F8F8"/>
				<stop  offset="0.8083" style="stop-color:#E3E5E6"/>
				<stop  offset="1" style="stop-color:#D9DCDD"/>
			</linearGradient>
			<path fill="url(#SVGID_11_)" d="M195.317,37.708c-1.593,0-2.896-1.306-2.896-2.901s1.303-2.865,2.896-2.865
				s2.859,1.27,2.859,2.865S196.91,37.708,195.317,37.708z M197.381,29.293h-2.39c0-5.114,6.588-7,6.588-12.513
				c0-1.777-0.941-2.503-1.991-2.503c-1.375,0-2.896,1.197-2.896,3.011c0,0.834,0.362,2.104,1.376,2.394
				c-0.615,1.016-1.629,1.523-2.643,1.523c-1.411,0-2.751-1.016-2.751-3.047c0-2.466,2.136-5.839,7.602-5.839
				c4.958,0,5.791,1.958,5.791,4.389C206.067,23.708,199.154,23.889,197.381,29.293z"/>
		</g>
	</g>
</g>
<g id="Layer_2">
	<g>
		<g>
			<path fill="#424242" d="M18.641,23.691c1.546-0.274,3.091-0.592,4.546-0.592c0.318,0,0.682,0,1,0.046l2.819-13.301h6.546
				l-7.228,34.074h-6.546l3.591-16.9c-1-0.365-1.955-0.456-2.909-0.456c-0.864,0-1.728,0.091-2.455,0.182l-3.637,17.174H7.822
				l6.591-30.976c-4,1.685-6.364,5.148-6.364,9.976c0,2.324,0.591,2.688,0.637,3.098c-3.137,0-4.864-1.139-4.864-4.418
				c0-6.058,8.364-11.844,15.956-11.844c0.636,0,1.227,0.045,1.818,0.091L18.641,23.691z"/>
			<path fill="#424242" d="M49.367,27.381c0.273,0.274,0.682,0.41,1.318,0.41c2.137,0,3.091-1.548,4.773-2.232l0.182,0.957
				c-1.409,1.777-3.773,3.279-6.409,4.009c-0.864,9.156-5.819,13.666-10.365,13.666c-4.864,0-6.955-2.049-6.955-7.471
				c0-11.207,5.682-16.035,11.955-16.035C48.185,20.685,49.276,24.056,49.367,27.381z M45.867,30.98
				c-1.318,0-1.909-0.957-1.909-2.049c0-1.322,0.773-2.733,2-3.189c-0.137-1.504-0.637-2.369-1.909-2.369
				c-4.273,0-6.091,9.293-6.091,12.938c0,2.733,1.272,3.461,3.045,3.461C43.776,39.772,45.321,35.399,45.867,30.98z"/>
			<path fill="#424242" d="M81.822,24.329c0,7.106-3.591,19.588-12.773,19.588c-3.091,0-5.091-1.185-5.546-3.781
				c-2.137,1.959-4.591,3.781-6.5,3.781c-3.5,0-5.682-1.549-5.682-4.965c0-0.683,0.091-1.458,0.273-2.324l3.273-15.488h6.546
				l-3.273,15.488c-0.091,0.502-0.182,1.003-0.182,1.413c0,1.002,0.455,1.731,2.273,1.731c0.954,0,2.091-0.683,3.182-1.594
				c0-0.455,0.091-1.002,0.228-1.549l3.273-15.488h6.546l-3.273,15.488c-0.136,0.638-0.228,1.185-0.228,1.686
				c0,0.865,0.409,1.457,1.728,1.457c4.455,0,7.501-9.976,7.501-14.941c-0.273,0.091-0.682,0.182-0.955,0.182
				c-1.318,0-1.909-1.276-1.909-2.551c0-0.957,1.091-2.232,2.591-2.232C80.867,20.23,81.822,21.96,81.822,24.329z"/>
			<path fill="#424242" d="M115.228,12.03l-5.182,24.598c-0.091,0.502-0.228,1.003-0.228,1.458c0,1.002,0.5,1.685,2.273,1.685
				c1.818,0,4.182-2.551,6.001-4.008h1.545c-2.091,2.095-7.228,8.154-10.774,8.154c-2.955,0-4.909-1.093-5.5-3.462
				c-1.364,1.868-3.409,3.736-6.182,3.736c-4.364,0-5.636-3.098-5.636-5.785c0-7.835,2.819-17.219,11.909-17.219
				c1.092,0,2.228,0.455,3.046,1.139l2-9.384L115.228,12.03z M97.682,37.175c0,2.734,1.5,3.234,2.636,3.234
				c1.046,0,2.046-1.002,2.909-2.278c0.045-0.455,0.136-0.957,0.273-1.504l2.546-12.071c-0.727-0.637-1.591-0.82-2.227-0.82
				C100.409,23.737,97.682,30.98,97.682,37.175z"/>
			<path fill="#424242" d="M134.501,24.284l0.454,0.911c-0.454,1.594-1.227,3.736-3.045,4.829
				c-0.5,9.429-5.864,14.213-10.137,14.213c-4.864,0-7.137-2.095-7.137-7.516c0-11.115,5.728-16.035,11.955-16.035
				c2.182,0,4.273,0.865,4.273,2.049c0,1.321-1.091,1.868-2.046,2.187c-0.364-0.957-1-1.549-2.045-1.549
				c-4.455,0-6.091,9.293-6.091,12.938c0,2.733,1.363,3.461,3.182,3.461c2.682,0,4.273-4.92,4.727-9.11
				c-0.909-0.182-1.272-0.911-1.272-1.868c0-1.594,1.591-3.462,3.045-3.462c0.864,0,1.546,0.274,1.546,1.23
				c0,0.137,0,0.274-0.045,0.41C133.046,26.243,133.455,25.423,134.501,24.284z"/>
			<path fill="#424242" d="M155.179,43.917h-6.545l6.592-30.931c-3.957,1.64-6.365,5.056-6.365,9.93
				c0,2.324,0.591,2.688,0.637,3.098c-3.137,0-4.864-1.139-4.864-4.418c0-6.058,8.365-11.844,15.954-11.844
				c0.638,0,1.229,0.045,1.82,0.091L155.179,43.917z"/>
			<path fill="#424242" d="M183.043,12.03l-5.227,24.598c-0.137,0.684-0.228,1.094-0.228,1.458c0,1.002,0.5,1.685,2.274,1.685
				c1.818,0,4.182-2.551,6-4.008h1.545c-2.092,2.095-7.229,8.154-10.774,8.154c-3.5,0-5.637-1.549-5.637-4.965
				c0-0.683,0.091-1.458,0.272-2.324l5.046-23.687L183.043,12.03z"/>
			<path fill="#424242" d="M200.133,27.381c0.272,0.274,0.682,0.41,1.317,0.41c2.137,0,3.093-1.548,4.774-2.232l0.182,0.957
				c-1.408,1.777-3.773,3.279-6.41,4.009c-0.863,9.156-5.819,13.666-10.364,13.666c-4.864,0-6.954-2.049-6.954-7.471
				c0-11.207,5.681-16.035,11.956-16.035C198.951,20.685,200.043,24.056,200.133,27.381z M196.633,30.98
				c-1.317,0-1.908-0.957-1.908-2.049c0-1.322,0.773-2.733,1.999-3.189c-0.135-1.504-0.635-2.369-1.908-2.369
				c-4.273,0-6.091,9.293-6.091,12.938c0,2.733,1.273,3.461,3.044,3.461C194.543,39.772,196.088,35.399,196.633,30.98z"/>
			<path fill="#424242" d="M219.132,27.381c0.272,0.274,0.682,0.41,1.317,0.41c2.137,0,3.093-1.548,4.774-2.232l0.182,0.957
				c-1.408,1.777-3.773,3.279-6.41,4.009c-0.863,9.156-5.819,13.666-10.364,13.666c-4.864,0-6.954-2.049-6.954-7.471
				c0-11.207,5.681-16.035,11.956-16.035C217.95,20.685,219.041,24.056,219.132,27.381z M215.631,30.98
				c-1.317,0-1.908-0.957-1.908-2.049c0-1.322,0.773-2.733,1.999-3.189c-0.135-1.504-0.635-2.369-1.908-2.369
				c-4.273,0-6.091,9.293-6.091,12.938c0,2.733,1.273,3.461,3.044,3.461C213.541,39.772,215.087,35.399,215.631,30.98z"/>
			<path fill="#424242" d="M242.632,21.14l-9.047,6.15c0.366-0.045,0.682-0.091,1.047-0.091c2.5,0,5.272,2.733,5.272,5.739
				c0,0.319-0.044,0.683-0.135,1.047l-0.591,2.642c-0.137,0.638-0.365,1.322-0.365,1.913c0,0.775,0.365,1.321,1.729,1.321
				c0.316,0,0.817,0,1.18-0.136c-1.271,3.917-3.182,4.191-4.727,4.191c-3.226,0-4.636-2.141-4.636-5.01
				c0-0.73,0.091-1.504,0.272-2.279l0.456-2.14c0.044-0.319,0.091-0.683,0.091-1.047c0-1.458-0.638-2.825-2.046-2.825
				c-1.092,0-1.911,0.319-2.819,0.957l-2.637,12.345h-6.547l6.591-30.976l6.729-0.911l-3.363,15.898
				c3.363-2.687,8.637-6.833,8.637-6.787H242.632z"/>
			<path fill="#424242" d="M248.857,43.917c-2.002,0-3.638-1.64-3.638-3.644c0-2.004,1.636-3.599,3.638-3.599
				c1.999,0,3.591,1.594,3.591,3.599C252.449,42.277,250.857,43.917,248.857,43.917z M251.448,33.348h-3
				c0-6.423,8.274-8.792,8.274-15.715c0-2.232-1.182-3.144-2.502-3.144c-1.727,0-3.635,1.504-3.635,3.781
				c0,1.047,0.454,2.642,1.727,3.006c-0.773,1.276-2.046,1.913-3.319,1.913c-1.771,0-3.454-1.276-3.454-3.827
				c0-3.098,2.681-7.334,9.547-7.334c6.226,0,7.273,2.46,7.273,5.512C262.359,26.333,253.675,26.562,251.448,33.348z"/>
		</g>
	</g>
	<g>
		<g>
			<linearGradient id="SVGID_12_" gradientUnits="userSpaceOnUse" x1="131.5266" y1="8.2569" x2="131.5266" y2="42.7407">
				<stop  offset="0" style="stop-color:#FFFFFF"/>
				<stop  offset="0.2377" style="stop-color:#FAFAFA"/>
				<stop  offset="0.5247" style="stop-color:#EBECEB"/>
				<stop  offset="0.8361" style="stop-color:#D4D4D3"/>
				<stop  offset="1" style="stop-color:#C4C5C3"/>
			</linearGradient>
			<path fill="url(#SVGID_12_)" d="M17.077,22.196c1.546-0.274,3.091-0.592,4.546-0.592c0.318,0,0.682,0,1,0.046l2.819-13.301h6.546
				L24.76,42.422h-6.546l3.591-16.9c-1-0.365-1.955-0.456-2.909-0.456c-0.864,0-1.728,0.091-2.455,0.182l-3.637,17.174H6.259
				l6.591-30.976c-4,1.685-6.364,5.148-6.364,9.976c0,2.324,0.591,2.688,0.637,3.098c-3.137,0-4.864-1.139-4.864-4.418
				c0-6.058,8.364-11.844,15.956-11.844c0.636,0,1.227,0.045,1.818,0.091L17.077,22.196z"/>
			<linearGradient id="SVGID_13_" gradientUnits="userSpaceOnUse" x1="131.5266" y1="8.2569" x2="131.5266" y2="42.7407">
				<stop  offset="0" style="stop-color:#FFFFFF"/>
				<stop  offset="0.2377" style="stop-color:#FAFAFA"/>
				<stop  offset="0.5247" style="stop-color:#EBECEB"/>
				<stop  offset="0.8361" style="stop-color:#D4D4D3"/>
				<stop  offset="1" style="stop-color:#C4C5C3"/>
			</linearGradient>
			<path fill="url(#SVGID_13_)" d="M47.804,25.886c0.273,0.274,0.682,0.41,1.318,0.41c2.137,0,3.091-1.548,4.773-2.232l0.182,0.957
				c-1.409,1.777-3.773,3.279-6.409,4.009c-0.864,9.156-5.819,13.666-10.365,13.666c-4.864,0-6.955-2.049-6.955-7.471
				c0-11.207,5.682-16.035,11.955-16.035C46.622,19.19,47.713,22.56,47.804,25.886z M44.303,29.485c-1.318,0-1.909-0.957-1.909-2.05
				c0-1.321,0.773-2.733,2-3.188c-0.137-1.504-0.637-2.369-1.909-2.369c-4.273,0-6.091,9.293-6.091,12.938
				c0,2.733,1.272,3.461,3.045,3.461C42.212,38.276,43.758,33.904,44.303,29.485z"/>
			<linearGradient id="SVGID_14_" gradientUnits="userSpaceOnUse" x1="131.5266" y1="8.2569" x2="131.5266" y2="42.7407">
				<stop  offset="0" style="stop-color:#FFFFFF"/>
				<stop  offset="0.2377" style="stop-color:#FAFAFA"/>
				<stop  offset="0.5247" style="stop-color:#EBECEB"/>
				<stop  offset="0.8361" style="stop-color:#D4D4D3"/>
				<stop  offset="1" style="stop-color:#C4C5C3"/>
			</linearGradient>
			<path fill="url(#SVGID_14_)" d="M80.258,22.834c0,7.106-3.591,19.588-12.773,19.588c-3.091,0-5.091-1.185-5.546-3.781
				c-2.137,1.959-4.591,3.781-6.5,3.781c-3.5,0-5.682-1.549-5.682-4.965c0-0.683,0.091-1.458,0.273-2.324l3.273-15.488h6.546
				l-3.273,15.488c-0.091,0.502-0.182,1.003-0.182,1.413c0,1.002,0.455,1.731,2.273,1.731c0.954,0,2.091-0.683,3.182-1.594
				c0-0.455,0.091-1.002,0.228-1.549l3.273-15.488h6.546l-3.273,15.488c-0.136,0.638-0.228,1.185-0.228,1.686
				c0,0.865,0.409,1.457,1.728,1.457c4.455,0,7.501-9.976,7.501-14.941c-0.273,0.091-0.682,0.182-0.955,0.182
				c-1.318,0-1.909-1.276-1.909-2.551c0-0.957,1.091-2.232,2.591-2.232C79.303,18.734,80.258,20.465,80.258,22.834z"/>
			<linearGradient id="SVGID_15_" gradientUnits="userSpaceOnUse" x1="131.5266" y1="8.2569" x2="131.5266" y2="42.7407">
				<stop  offset="0" style="stop-color:#FFFFFF"/>
				<stop  offset="0.2377" style="stop-color:#FAFAFA"/>
				<stop  offset="0.5247" style="stop-color:#EBECEB"/>
				<stop  offset="0.8361" style="stop-color:#D4D4D3"/>
				<stop  offset="1" style="stop-color:#C4C5C3"/>
			</linearGradient>
			<path fill="url(#SVGID_15_)" d="M113.665,10.534l-5.182,24.598c-0.091,0.502-0.228,1.003-0.228,1.458
				c0,1.002,0.5,1.685,2.273,1.685c1.818,0,4.182-2.551,6.001-4.008h1.545c-2.091,2.095-7.228,8.154-10.774,8.154
				c-2.955,0-4.909-1.093-5.5-3.462c-1.364,1.868-3.409,3.736-6.182,3.736c-4.364,0-5.636-3.098-5.636-5.785
				c0-7.835,2.819-17.219,11.909-17.219c1.092,0,2.228,0.455,3.046,1.139l2-9.384L113.665,10.534z M96.119,35.68
				c0,2.734,1.5,3.234,2.636,3.234c1.046,0,2.046-1.002,2.909-2.278c0.045-0.455,0.136-0.957,0.273-1.504l2.546-12.071
				c-0.727-0.637-1.591-0.82-2.227-0.82C98.846,22.241,96.119,29.485,96.119,35.68z"/>
			<linearGradient id="SVGID_16_" gradientUnits="userSpaceOnUse" x1="131.5266" y1="8.2569" x2="131.5266" y2="42.7407">
				<stop  offset="0" style="stop-color:#FFFFFF"/>
				<stop  offset="0.2377" style="stop-color:#FAFAFA"/>
				<stop  offset="0.5247" style="stop-color:#EBECEB"/>
				<stop  offset="0.8361" style="stop-color:#D4D4D3"/>
				<stop  offset="1" style="stop-color:#C4C5C3"/>
			</linearGradient>
			<path fill="url(#SVGID_16_)" d="M132.937,22.788l0.454,0.911c-0.454,1.594-1.227,3.735-3.045,4.829
				c-0.5,9.429-5.864,14.213-10.137,14.213c-4.864,0-7.137-2.095-7.137-7.516c0-11.115,5.728-16.035,11.955-16.035
				c2.182,0,4.273,0.865,4.273,2.049c0,1.321-1.091,1.868-2.046,2.187c-0.364-0.957-1-1.549-2.045-1.549
				c-4.455,0-6.091,9.293-6.091,12.938c0,2.733,1.363,3.461,3.182,3.461c2.682,0,4.273-4.92,4.727-9.11
				c-0.909-0.182-1.272-0.911-1.272-1.867c0-1.594,1.591-3.462,3.045-3.462c0.864,0,1.546,0.274,1.546,1.23
				c0,0.137,0,0.274-0.045,0.41C131.482,24.747,131.891,23.927,132.937,22.788z"/>
			<linearGradient id="SVGID_17_" gradientUnits="userSpaceOnUse" x1="131.5266" y1="8.2569" x2="131.5266" y2="42.7407">
				<stop  offset="0" style="stop-color:#FFFFFF"/>
				<stop  offset="0.2377" style="stop-color:#FAFAFA"/>
				<stop  offset="0.5247" style="stop-color:#EBECEB"/>
				<stop  offset="0.8361" style="stop-color:#D4D4D3"/>
				<stop  offset="1" style="stop-color:#C4C5C3"/>
			</linearGradient>
			<path fill="url(#SVGID_17_)" d="M153.617,42.422h-6.546l6.591-30.931c-3.955,1.64-6.364,5.056-6.364,9.93
				c0,2.324,0.591,2.688,0.637,3.098c-3.136,0-4.864-1.139-4.864-4.418c0-6.058,8.364-11.844,15.955-11.844
				c0.637,0,1.228,0.045,1.819,0.091L153.617,42.422z"/>
			<linearGradient id="SVGID_18_" gradientUnits="userSpaceOnUse" x1="131.5266" y1="8.2569" x2="131.5266" y2="42.7407">
				<stop  offset="0" style="stop-color:#FFFFFF"/>
				<stop  offset="0.2377" style="stop-color:#FAFAFA"/>
				<stop  offset="0.5247" style="stop-color:#EBECEB"/>
				<stop  offset="0.8361" style="stop-color:#D4D4D3"/>
				<stop  offset="1" style="stop-color:#C4C5C3"/>
			</linearGradient>
			<path fill="url(#SVGID_18_)" d="M181.479,10.534l-5.227,24.598c-0.136,0.684-0.227,1.094-0.227,1.458
				c0,1.002,0.499,1.685,2.273,1.685c1.818,0,4.182-2.551,6-4.008h1.545c-2.091,2.095-7.228,8.154-10.774,8.154
				c-3.499,0-5.636-1.549-5.636-4.965c0-0.683,0.091-1.458,0.272-2.324l5.046-23.687L181.479,10.534z"/>
			<linearGradient id="SVGID_19_" gradientUnits="userSpaceOnUse" x1="131.5266" y1="8.2569" x2="131.5266" y2="42.7407">
				<stop  offset="0" style="stop-color:#FFFFFF"/>
				<stop  offset="0.2377" style="stop-color:#FAFAFA"/>
				<stop  offset="0.5247" style="stop-color:#EBECEB"/>
				<stop  offset="0.8361" style="stop-color:#D4D4D3"/>
				<stop  offset="1" style="stop-color:#C4C5C3"/>
			</linearGradient>
			<path fill="url(#SVGID_19_)" d="M198.57,25.886c0.272,0.274,0.682,0.41,1.317,0.41c2.137,0,3.092-1.548,4.774-2.232l0.182,0.957
				c-1.409,1.777-3.773,3.279-6.41,4.009c-0.863,9.156-5.819,13.666-10.364,13.666c-4.864,0-6.954-2.049-6.954-7.471
				c0-11.207,5.681-16.035,11.955-16.035C197.388,19.19,198.478,22.56,198.57,25.886z M195.07,29.485c-1.318,0-1.91-0.957-1.91-2.05
				c0-1.321,0.773-2.733,2-3.188c-0.136-1.504-0.637-2.369-1.91-2.369c-4.273,0-6.091,9.293-6.091,12.938
				c0,2.733,1.273,3.461,3.045,3.461C192.979,38.276,194.524,33.904,195.07,29.485z"/>
			<linearGradient id="SVGID_20_" gradientUnits="userSpaceOnUse" x1="131.5266" y1="8.2569" x2="131.5266" y2="42.7407">
				<stop  offset="0" style="stop-color:#FFFFFF"/>
				<stop  offset="0.2377" style="stop-color:#FAFAFA"/>
				<stop  offset="0.5247" style="stop-color:#EBECEB"/>
				<stop  offset="0.8361" style="stop-color:#D4D4D3"/>
				<stop  offset="1" style="stop-color:#C4C5C3"/>
			</linearGradient>
			<path fill="url(#SVGID_20_)" d="M217.569,25.886c0.272,0.274,0.682,0.41,1.317,0.41c2.137,0,3.092-1.548,4.774-2.232l0.182,0.957
				c-1.409,1.777-3.773,3.279-6.41,4.009c-0.863,9.156-5.819,13.666-10.364,13.666c-4.864,0-6.954-2.049-6.954-7.471
				c0-11.207,5.681-16.035,11.955-16.035C216.387,19.19,217.477,22.56,217.569,25.886z M214.069,29.485
				c-1.318,0-1.91-0.957-1.91-2.05c0-1.321,0.773-2.733,2-3.188c-0.136-1.504-0.637-2.369-1.91-2.369
				c-4.273,0-6.091,9.293-6.091,12.938c0,2.733,1.273,3.461,3.045,3.461C211.977,38.276,213.523,33.904,214.069,29.485z"/>
			<linearGradient id="SVGID_21_" gradientUnits="userSpaceOnUse" x1="131.5266" y1="8.2569" x2="131.5266" y2="42.7407">
				<stop  offset="0" style="stop-color:#FFFFFF"/>
				<stop  offset="0.2377" style="stop-color:#FAFAFA"/>
				<stop  offset="0.5247" style="stop-color:#EBECEB"/>
				<stop  offset="0.8361" style="stop-color:#D4D4D3"/>
				<stop  offset="1" style="stop-color:#C4C5C3"/>
			</linearGradient>
			<path fill="url(#SVGID_21_)" d="M241.069,19.645l-9.047,6.15c0.364-0.045,0.682-0.091,1.046-0.091c2.5,0,5.273,2.733,5.273,5.739
				c0,0.319-0.045,0.683-0.136,1.047l-0.591,2.642c-0.136,0.638-0.364,1.322-0.364,1.913c0,0.775,0.364,1.321,1.728,1.321
				c0.318,0,0.818,0,1.181-0.136c-1.272,3.917-3.182,4.191-4.727,4.191c-3.227,0-4.636-2.141-4.636-5.01
				c0-0.73,0.091-1.504,0.272-2.279l0.455-2.14c0.045-0.319,0.091-0.683,0.091-1.047c0-1.458-0.637-2.825-2.046-2.825
				c-1.092,0-1.91,0.319-2.819,0.957l-2.637,12.345h-6.546l6.591-30.976l6.729-0.911l-3.364,15.898
				c3.364-2.687,8.637-6.833,8.637-6.787H241.069z"/>
			<linearGradient id="SVGID_22_" gradientUnits="userSpaceOnUse" x1="131.5266" y1="8.2569" x2="131.5266" y2="42.7407">
				<stop  offset="0" style="stop-color:#FFFFFF"/>
				<stop  offset="0.2377" style="stop-color:#FAFAFA"/>
				<stop  offset="0.5247" style="stop-color:#EBECEB"/>
				<stop  offset="0.8361" style="stop-color:#D4D4D3"/>
				<stop  offset="1" style="stop-color:#C4C5C3"/>
			</linearGradient>
			<path fill="url(#SVGID_22_)" d="M247.293,42.422c-2,0-3.637-1.64-3.637-3.644c0-2.004,1.636-3.599,3.637-3.599
				s3.591,1.594,3.591,3.599C250.885,40.782,249.294,42.422,247.293,42.422z M249.885,31.853h-3.001
				c0-6.423,8.274-8.792,8.274-15.715c0-2.232-1.182-3.144-2.501-3.144c-1.727,0-3.637,1.504-3.637,3.781
				c0,1.047,0.455,2.642,1.728,3.006c-0.773,1.276-2.046,1.913-3.319,1.913c-1.772,0-3.455-1.276-3.455-3.827
				c0-3.098,2.682-7.334,9.547-7.334c6.227,0,7.273,2.46,7.273,5.512C260.795,24.838,252.112,25.066,249.885,31.853z"/>
		</g>
	</g>
</g>
</svg>
